<svg xmlns="http://www.w3.org/2000/svg" version="1.1" width="96" height="96" viewbox="0 0 96 96"><rect x="0" y="0" width="96" height="96" fill="#FFFFFF"></rect><g transform="translate(36.024, 78.168)"><path d="M7.1-31.06L7.1-31.06Q7.49-32.45 8.74-33.38 9.98-34.32 11.71-34.32L11.71-34.32Q15.36-34.32 16.61-31.68L16.61-31.68Q16.9-31.06 16.9-30.19L16.9-30.19Q16.9-29.28 16.61-28.66L16.61-28.66Q15.36-26.02 11.95-26.02L11.95-26.02Q10.08-26.02 8.78-26.93 7.49-27.84 7.1-29.28L7.1-29.28Q7.06-29.47 7.06-30.14L7.06-30.14Q7.06-30.86 7.1-31.06ZM12-27.79L12-27.79Q13.78-27.79 14.4-28.25 15.02-28.7 15.02-30.14L15.02-30.14Q15.02-32.11 13.54-32.5L13.54-32.5Q13.3-32.54 12.14-32.54L12.14-32.54Q11.9-32.54 11.59-32.57 11.28-32.59 11.23-32.59L11.23-32.59Q10.03-32.59 9.5-32.04 8.98-31.49 8.98-30.19L8.98-30.19Q8.98-28.8 9.5-28.32L9.5-28.32Q10.08-27.79 12-27.79Z" fill="#404040"></path></g></svg>